<svg width="129.6" height="38.88" viewBox="0 0 129.6 38.88" xmlns="http://www.w3.org/2000/svg"><g id="svgGroup" stroke-linecap="round" fill-rule="evenodd" font-size="9pt" stroke="#ffffff" stroke-width="0.25mm" fill="#ffffff" style="stroke:#ffffff;stroke-width:0.25mm;fill:#ffffff"><path d="M 21.28 3.4 L 19.88 6.56 Q 18.2 5.64 16.46 5.04 Q 14.72 4.44 12.6 4.44 A 8.052 8.052 0 0 0 9.606 4.988 A 7.568 7.568 0 0 0 8.12 5.78 Q 6.16 7.12 5.02 9.72 Q 4.032 11.975 3.9 15.102 A 23.325 23.325 0 0 0 3.88 16.08 Q 3.88 19.004 4.668 21.185 A 10.415 10.415 0 0 0 4.92 21.82 A 9.672 9.672 0 0 0 6.093 23.839 A 7.641 7.641 0 0 0 7.8 25.48 A 7.172 7.172 0 0 0 11.724 26.754 A 8.797 8.797 0 0 0 12.04 26.76 Q 14.28 26.76 16.02 25.82 A 16.144 16.144 0 0 0 17.221 25.107 Q 17.792 24.731 18.251 24.345 A 7.975 7.975 0 0 0 18.76 23.88 L 18.76 17.76 L 12.96 17.76 L 12.96 14.76 L 22.36 14.76 L 22.36 29.6 L 19 29.6 L 19 26.8 A 14.353 14.353 0 0 1 17.249 28.117 A 18.942 18.942 0 0 1 15.6 29.06 A 9.437 9.437 0 0 1 11.838 30.06 A 11.252 11.252 0 0 1 11.16 30.08 A 10.629 10.629 0 0 1 7.435 29.44 A 9.804 9.804 0 0 1 5.4 28.4 A 10.755 10.755 0 0 1 2.228 25.081 A 13.58 13.58 0 0 1 1.44 23.62 A 15.012 15.012 0 0 1 0.277 19.792 A 20.735 20.735 0 0 1 0 16.32 A 22.52 22.52 0 0 1 0.334 12.353 A 17.029 17.029 0 0 1 1.52 8.42 A 13.092 13.092 0 0 1 3.834 4.841 A 11.782 11.782 0 0 1 5.9 3.06 A 11.133 11.133 0 0 1 10.448 1.3 A 14.825 14.825 0 0 1 12.8 1.12 A 18.103 18.103 0 0 1 15.188 1.27 A 13.444 13.444 0 0 1 17.44 1.76 Q 19.48 2.4 21.28 3.4 Z M 76.96 37.12 L 78.28 34 A 8.225 8.225 0 0 0 79.807 34.949 A 9.895 9.895 0 0 0 80.52 35.26 A 6.762 6.762 0 0 0 81.795 35.61 Q 82.634 35.76 83.64 35.76 A 8.68 8.68 0 0 0 85.449 35.583 Q 86.609 35.336 87.489 34.744 A 5.03 5.03 0 0 0 88.1 34.26 A 4.541 4.541 0 0 0 89.263 32.463 Q 89.72 31.223 89.72 29.48 L 89.72 26.92 Q 89.068 27.702 87.952 28.418 A 12.563 12.563 0 0 1 87.42 28.74 A 6.363 6.363 0 0 1 85.348 29.474 A 8.636 8.636 0 0 1 83.84 29.6 Q 81.48 29.6 79.36 28.38 A 8.894 8.894 0 0 1 76.443 25.645 A 10.975 10.975 0 0 1 75.92 24.8 A 10.072 10.072 0 0 1 74.835 21.75 A 14.013 14.013 0 0 1 74.6 19.12 A 12.824 12.824 0 0 1 74.967 15.997 A 10.673 10.673 0 0 1 75.9 13.56 A 10.283 10.283 0 0 1 78.326 10.511 A 9.779 9.779 0 0 1 79.4 9.72 Q 81.6 8.32 84.24 8.32 A 8.946 8.946 0 0 1 86.168 8.521 A 7.486 7.486 0 0 1 87.44 8.92 A 10.282 10.282 0 0 1 88.972 9.707 A 8.399 8.399 0 0 1 89.92 10.4 L 89.92 8.8 L 93.2 8.8 L 93.2 29.12 A 16.277 16.277 0 0 1 93.058 31.334 Q 92.898 32.503 92.555 33.477 A 8.066 8.066 0 0 1 92 34.72 Q 90.8 36.88 88.66 37.88 A 10.324 10.324 0 0 1 86.019 38.689 A 14.097 14.097 0 0 1 83.64 38.88 Q 81.8 38.88 80.06 38.44 A 10.893 10.893 0 0 1 77.94 37.673 A 9.407 9.407 0 0 1 76.96 37.12 Z M 129.48 20.68 L 114.92 20.68 Q 115.256 23.4 116.737 25.01 A 5.992 5.992 0 0 0 116.96 25.24 A 5.658 5.658 0 0 0 120.01 26.764 A 8.008 8.008 0 0 0 121.4 26.88 Q 123.2 26.88 124.64 26.5 Q 126.08 26.12 127.4 25.52 L 128.24 28.6 Q 126.8 29.24 125 29.66 A 15.566 15.566 0 0 1 122.964 29.988 A 20.81 20.81 0 0 1 120.96 30.08 A 11.327 11.327 0 0 1 117.862 29.678 A 8.443 8.443 0 0 1 113.86 27.22 Q 111.537 24.684 111.274 20.34 A 18.85 18.85 0 0 1 111.24 19.2 Q 111.24 16.08 112.42 13.62 A 9.857 9.857 0 0 1 114.427 10.787 A 9.155 9.155 0 0 1 115.72 9.74 A 8.419 8.419 0 0 1 119.824 8.351 A 10.482 10.482 0 0 1 120.64 8.32 Q 123.355 8.32 125.234 9.384 A 6.885 6.885 0 0 1 125.62 9.62 Q 127.6 10.92 128.6 13.12 Q 129.6 15.32 129.6 17.96 A 30.081 30.081 0 0 1 129.484 20.639 A 27.836 27.836 0 0 1 129.48 20.68 Z M 99.2 23.08 L 99.2 0 L 102.8 0 L 102.8 22.72 Q 102.8 24.016 103.124 24.909 A 3.189 3.189 0 0 0 103.7 25.92 Q 104.6 26.96 106.2 26.96 Q 106.96 26.96 107.7 26.78 A 8.877 8.877 0 0 0 108.285 26.617 Q 108.566 26.528 108.805 26.428 A 4.777 4.777 0 0 0 108.96 26.36 L 109.84 29.28 A 7.26 7.26 0 0 1 109.199 29.527 Q 108.881 29.633 108.515 29.729 A 13.992 13.992 0 0 1 108.06 29.84 A 9.527 9.527 0 0 1 106.798 30.034 A 12.205 12.205 0 0 1 105.72 30.08 A 8.345 8.345 0 0 1 103.764 29.859 A 7.018 7.018 0 0 1 102.4 29.38 A 5.073 5.073 0 0 1 100.27 27.474 A 6.342 6.342 0 0 1 100.06 27.12 Q 99.2 25.56 99.2 23.08 Z M 36.92 30.08 Q 33.96 30.08 31.6 28.7 Q 29.24 27.32 27.9 24.86 A 10.98 10.98 0 0 1 26.666 20.941 A 13.928 13.928 0 0 1 26.56 19.2 A 14.002 14.002 0 0 1 26.821 16.436 A 10.409 10.409 0 0 1 27.92 13.4 Q 29.28 10.96 31.64 9.64 A 10.468 10.468 0 0 1 36.288 8.336 A 12.53 12.53 0 0 1 36.92 8.32 Q 39.84 8.32 42.18 9.64 Q 44.52 10.96 45.9 13.38 A 10.318 10.318 0 0 1 47.086 16.757 A 13.817 13.817 0 0 1 47.28 19.12 A 13.674 13.674 0 0 1 46.981 22.044 A 10.502 10.502 0 0 1 45.92 24.9 Q 44.56 27.36 42.22 28.72 A 10.103 10.103 0 0 1 37.83 30.047 A 12.29 12.29 0 0 1 36.92 30.08 Z M 60.84 30.08 Q 57.88 30.08 55.52 28.7 Q 53.16 27.32 51.82 24.86 A 10.98 10.98 0 0 1 50.586 20.941 A 13.928 13.928 0 0 1 50.48 19.2 A 14.002 14.002 0 0 1 50.741 16.436 A 10.409 10.409 0 0 1 51.84 13.4 Q 53.2 10.96 55.56 9.64 A 10.468 10.468 0 0 1 60.208 8.336 A 12.53 12.53 0 0 1 60.84 8.32 Q 63.76 8.32 66.1 9.64 Q 68.44 10.96 69.82 13.38 A 10.318 10.318 0 0 1 71.006 16.757 A 13.817 13.817 0 0 1 71.2 19.12 A 13.674 13.674 0 0 1 70.901 22.044 A 10.502 10.502 0 0 1 69.84 24.9 Q 68.48 27.36 66.14 28.72 A 10.103 10.103 0 0 1 61.75 30.047 A 12.29 12.29 0 0 1 60.84 30.08 Z M 36.92 26.88 A 7.497 7.497 0 0 0 39.011 26.604 A 5.6 5.6 0 0 0 41.84 24.74 Q 43.6 22.6 43.6 19.2 A 8.55 8.55 0 0 0 43.11 16.286 A 8.006 8.006 0 0 0 42.72 15.38 A 7.679 7.679 0 0 0 41.051 13.153 A 7.268 7.268 0 0 0 40.34 12.58 Q 38.84 11.52 36.92 11.52 Q 33.76 11.52 32 13.6 Q 30.307 15.601 30.243 18.86 A 13.147 13.147 0 0 0 30.24 19.12 Q 30.24 21.2 31.12 22.98 A 7.775 7.775 0 0 0 32.532 24.996 A 7.051 7.051 0 0 0 33.5 25.82 Q 35 26.88 36.92 26.88 Z M 60.84 26.88 A 7.497 7.497 0 0 0 62.931 26.604 A 5.6 5.6 0 0 0 65.76 24.74 Q 67.52 22.6 67.52 19.2 A 8.55 8.55 0 0 0 67.03 16.286 A 8.006 8.006 0 0 0 66.64 15.38 A 7.679 7.679 0 0 0 64.971 13.153 A 7.268 7.268 0 0 0 64.26 12.58 Q 62.76 11.52 60.84 11.52 Q 57.68 11.52 55.92 13.6 Q 54.227 15.601 54.163 18.86 A 13.147 13.147 0 0 0 54.16 19.12 Q 54.16 21.2 55.04 22.98 A 7.775 7.775 0 0 0 56.452 24.996 A 7.051 7.051 0 0 0 57.42 25.82 Q 58.92 26.88 60.84 26.88 Z M 89.6 24 L 89.6 13.12 Q 88.734 12.49 87.519 11.976 A 14.41 14.41 0 0 0 87.48 11.96 A 6.499 6.499 0 0 0 85.959 11.54 A 8.854 8.854 0 0 0 84.6 11.44 Q 82.96 11.44 81.52 12.32 Q 80.08 13.2 79.18 14.86 A 7.12 7.12 0 0 0 78.478 16.833 Q 78.305 17.675 78.283 18.641 A 12.458 12.458 0 0 0 78.28 18.92 A 9.728 9.728 0 0 0 78.471 20.894 A 7.324 7.324 0 0 0 79.18 22.88 A 7.43 7.43 0 0 0 80.345 24.51 A 6.321 6.321 0 0 0 81.52 25.48 Q 82.96 26.4 84.64 26.4 A 6.111 6.111 0 0 0 86.471 26.133 A 5.442 5.442 0 0 0 87.52 25.68 A 8.342 8.342 0 0 0 88.713 24.874 A 6.524 6.524 0 0 0 89.6 24 Z M 114.88 17.76 L 126.28 17.76 A 9.742 9.742 0 0 0 126.119 15.926 Q 125.92 14.892 125.479 14.083 A 4.969 4.969 0 0 0 124.76 13.08 A 4.995 4.995 0 0 0 121.976 11.57 A 7.358 7.358 0 0 0 120.56 11.44 A 5.432 5.432 0 0 0 118.516 11.814 A 5.01 5.01 0 0 0 116.72 13.06 Q 115.2 14.68 114.88 17.76 Z" vector-effect="non-scaling-stroke"/></g></svg>