<svg width="111.391" height="22.56" viewBox="0 0 111.391 22.56" xmlns="http://www.w3.org/2000/svg"><g id="svgGroup" stroke-linecap="round" fill-rule="evenodd" font-size="9pt" stroke="#ffffff" stroke-width="0.25mm" fill="#ffffff" style="stroke:#ffffff;stroke-width:0.25mm;fill:#ffffff"><path d="M 93.54 21.45 L 90.93 22.5 L 88.59 16.5 L 78.87 16.5 L 76.53 22.44 L 74.1 21.45 L 82.32 1.2 L 85.44 1.2 L 93.54 21.45 Z M 18.27 8.16 L 18.27 0 L 20.97 0 L 20.97 18.42 A 3.645 3.645 0 0 0 21 18.911 Q 21.077 19.475 21.349 19.761 A 0.89 0.89 0 0 0 21.525 19.905 Q 22.08 20.25 22.74 20.25 L 22.17 22.35 Q 19.355 22.35 18.706 20.126 A 4.022 4.022 0 0 1 18.69 20.07 A 5.846 5.846 0 0 1 17.841 21.015 Q 17.415 21.402 16.88 21.757 A 9.689 9.689 0 0 1 16.845 21.78 Q 15.66 22.56 13.86 22.56 Q 11.94 22.56 10.35 21.57 A 6.808 6.808 0 0 1 8.089 19.233 A 8.287 8.287 0 0 1 7.83 18.765 A 8.26 8.26 0 0 1 7.053 16.382 A 11.166 11.166 0 0 1 6.9 14.49 A 10.182 10.182 0 0 1 7.167 12.116 A 8.389 8.389 0 0 1 7.845 10.26 Q 8.79 8.4 10.365 7.32 Q 11.94 6.24 13.83 6.24 A 6.493 6.493 0 0 1 15.112 6.361 A 4.783 4.783 0 0 1 16.515 6.87 A 10.303 10.303 0 0 1 17.289 7.347 Q 17.656 7.597 17.947 7.852 A 4.977 4.977 0 0 1 18.27 8.16 Z M 96.54 22.14 L 96.54 1.26 Q 97.59 1.14 99.15 1.05 Q 100.71 0.96 102.72 0.96 Q 106.56 0.96 108.63 2.415 Q 110.7 3.87 110.7 6.36 A 5.116 5.116 0 0 1 110.512 7.776 A 4.139 4.139 0 0 1 109.815 9.165 A 5.486 5.486 0 0 1 108.65 10.278 Q 108.114 10.663 107.444 10.981 A 9.499 9.499 0 0 1 107.25 11.07 A 9.065 9.065 0 0 1 108.641 11.688 Q 109.684 12.268 110.34 13.065 A 4.576 4.576 0 0 1 111.35 15.496 A 6.034 6.034 0 0 1 111.39 16.2 Q 111.39 19.05 109.14 20.745 A 7.404 7.404 0 0 1 106.927 21.858 Q 105.907 22.185 104.665 22.329 A 18.058 18.058 0 0 1 102.6 22.44 A 66.551 66.551 0 0 1 100.176 22.397 A 56.269 56.269 0 0 1 99.135 22.35 Q 97.787 22.276 96.898 22.181 A 19.662 19.662 0 0 1 96.54 22.14 Z M 38.67 15.51 L 27.75 15.51 A 7.226 7.226 0 0 0 28.092 17.018 Q 28.493 18.161 29.28 18.93 A 4.243 4.243 0 0 0 31.567 20.073 A 6.006 6.006 0 0 0 32.61 20.16 A 11.019 11.019 0 0 0 33.892 20.089 A 8.273 8.273 0 0 0 35.04 19.875 Q 36.12 19.59 37.11 19.14 L 37.74 21.45 A 12.231 12.231 0 0 1 36.44 21.938 A 15.559 15.559 0 0 1 35.31 22.245 A 11.674 11.674 0 0 1 33.782 22.491 A 15.608 15.608 0 0 1 32.28 22.56 A 8.495 8.495 0 0 1 29.956 22.258 A 6.332 6.332 0 0 1 26.955 20.415 A 7.056 7.056 0 0 1 25.393 17.553 Q 24.99 16.154 24.99 14.4 A 10.608 10.608 0 0 1 25.24 12.053 A 8.652 8.652 0 0 1 25.875 10.215 A 7.393 7.393 0 0 1 27.38 8.09 A 6.866 6.866 0 0 1 28.35 7.305 Q 29.94 6.24 32.04 6.24 A 8.566 8.566 0 0 1 33.681 6.389 Q 34.684 6.585 35.485 7.038 A 5.164 5.164 0 0 1 35.775 7.215 Q 37.26 8.19 38.01 9.84 A 8.456 8.456 0 0 1 38.738 12.799 A 10.03 10.03 0 0 1 38.76 13.47 A 22.561 22.561 0 0 1 38.673 15.479 A 20.779 20.779 0 0 1 38.67 15.51 Z M 73.65 22.2 L 61.17 22.2 L 61.17 1.2 L 64.02 1.2 L 64.02 19.65 L 73.65 19.65 L 73.65 22.2 Z M 53.04 7.86 L 53.04 6.6 L 55.5 6.6 L 55.5 18.42 A 3.645 3.645 0 0 0 55.53 18.911 Q 55.607 19.475 55.879 19.761 A 0.89 0.89 0 0 0 56.055 19.905 Q 56.61 20.25 57.27 20.25 L 56.7 22.35 Q 53.891 22.35 53.251 20.124 A 4.076 4.076 0 0 1 53.22 20.01 A 6.392 6.392 0 0 1 52.287 21.038 A 8.549 8.549 0 0 1 51.345 21.765 A 4.478 4.478 0 0 1 49.859 22.396 Q 49.254 22.538 48.548 22.557 A 8.162 8.162 0 0 1 48.33 22.56 Q 46.38 22.56 44.79 21.57 A 6.884 6.884 0 0 1 42.566 19.312 A 8.377 8.377 0 0 1 42.255 18.765 A 8.168 8.168 0 0 1 41.466 16.382 A 10.993 10.993 0 0 1 41.31 14.49 A 9.943 9.943 0 0 1 41.609 12.009 A 8.39 8.39 0 0 1 42.255 10.29 Q 43.2 8.43 44.865 7.335 A 6.689 6.689 0 0 1 48.223 6.253 A 8.216 8.216 0 0 1 48.69 6.24 A 6.775 6.775 0 0 1 50.128 6.387 A 5.611 5.611 0 0 1 51.135 6.705 A 7.801 7.801 0 0 1 52.421 7.393 A 6.631 6.631 0 0 1 53.04 7.86 Z M 2.85 22.2 L 0 22.2 L 0 1.2 L 2.85 1.2 L 2.85 22.2 Z M 52.8 18.21 L 52.8 9.84 Q 51.99 9.27 51.015 8.925 Q 50.04 8.58 48.96 8.58 A 4.777 4.777 0 0 0 47.469 8.806 A 4.207 4.207 0 0 0 46.425 9.315 Q 45.33 10.05 44.7 11.355 Q 44.07 12.66 44.07 14.4 Q 44.07 16.08 44.7 17.385 A 5.281 5.281 0 0 0 45.632 18.749 A 4.709 4.709 0 0 0 46.44 19.425 Q 47.55 20.16 48.93 20.16 Q 50.07 20.16 51.09 19.605 Q 52.11 19.05 52.8 18.21 Z M 18.27 18.27 L 18.27 10.53 Q 17.757 9.882 16.881 9.32 A 8.442 8.442 0 0 0 16.68 9.195 Q 15.66 8.58 14.43 8.58 Q 12.99 8.58 11.91 9.36 A 5.007 5.007 0 0 0 10.359 11.205 A 5.977 5.977 0 0 0 10.245 11.445 A 6.657 6.657 0 0 0 9.723 13.354 A 8.434 8.434 0 0 0 9.66 14.4 A 7.427 7.427 0 0 0 9.838 16.056 A 6.098 6.098 0 0 0 10.29 17.355 A 5.461 5.461 0 0 0 11.202 18.709 A 4.837 4.837 0 0 0 12.015 19.41 A 4.229 4.229 0 0 0 14.46 20.16 Q 15.57 20.16 16.575 19.635 Q 17.58 19.11 18.27 18.27 Z M 102.81 12.48 L 99.39 12.48 L 99.39 19.89 A 28.255 28.255 0 0 0 101.471 20.045 A 34.549 34.549 0 0 0 102.81 20.07 Q 104.562 20.07 105.81 19.657 A 5.181 5.181 0 0 0 106.98 19.11 Q 108.48 18.15 108.48 16.32 A 3.518 3.518 0 0 0 108.218 14.94 Q 107.888 14.156 107.14 13.594 A 4.208 4.208 0 0 0 107.01 13.5 Q 105.922 12.745 104.143 12.549 A 12.186 12.186 0 0 0 102.81 12.48 Z M 83.73 4.02 L 79.77 14.1 L 87.66 14.1 L 83.73 4.02 Z M 99.39 3.42 L 99.39 10.26 L 102.69 10.26 A 9.198 9.198 0 0 0 104.2 10.144 Q 104.995 10.011 105.641 9.728 A 4.578 4.578 0 0 0 106.455 9.27 A 3.657 3.657 0 0 0 107.277 8.485 A 2.867 2.867 0 0 0 107.85 6.72 Q 107.85 5.113 106.587 4.233 A 3.694 3.694 0 0 0 106.47 4.155 A 4.993 4.993 0 0 0 105.124 3.566 Q 104.503 3.39 103.761 3.319 A 11.198 11.198 0 0 0 102.69 3.27 A 37.875 37.875 0 0 0 101.745 3.281 A 28.108 28.108 0 0 0 100.89 3.315 A 54.38 54.38 0 0 0 100.11 3.364 A 42.909 42.909 0 0 0 99.39 3.42 Z M 27.72 13.32 L 36.27 13.32 A 7.307 7.307 0 0 0 36.149 11.944 Q 36 11.169 35.669 10.562 A 3.727 3.727 0 0 0 35.13 9.81 A 3.747 3.747 0 0 0 33.042 8.677 A 5.519 5.519 0 0 0 31.98 8.58 Q 30.24 8.58 29.1 9.795 Q 27.96 11.01 27.72 13.32 Z" vector-effect="non-scaling-stroke"/></g></svg>