<svg
                  width="164.13"
                  height="22.56"
                  viewBox="0 0 164.13 22.56"
                  xmlns="http://www.w3.org/2000/svg"
                >
                  <g
                    id="svgGroup"
                    stroke-linecap="round"
                    fill-rule="evenodd"
                    font-size="9pt"
                    stroke="#ffffff"
                    stroke-width="0.25mm"
                    fill="#ffffff"
                    style="stroke: #ffffff; stroke-width: 0.25mm; fill: #ffffff"
                  >
                    <path
                      d="M 2.7 22.2 L 0 22.2 L 0 1.2 L 3.99 1.2 L 9.81 14.49 L 15.54 1.2 L 19.62 1.2 L 19.62 22.2 L 16.77 22.2 L 16.77 4.83 L 11.16 17.46 L 8.34 17.46 L 2.7 4.83 L 2.7 22.2 Z M 103.17 22.2 L 100.32 22.2 L 100.32 1.2 L 103.17 1.2 L 103.17 10.17 L 113.52 10.17 L 113.52 1.2 L 116.37 1.2 L 116.37 22.2 L 113.52 22.2 L 113.52 12.63 L 103.17 12.63 L 103.17 22.2 Z M 43.74 22.2 L 41.04 22.2 L 41.04 6.6 L 43.65 6.6 L 43.65 9.21 Q 44.49 7.95 45.795 7.095 A 5.195 5.195 0 0 1 47.927 6.308 A 6.789 6.789 0 0 1 48.9 6.24 Q 50.916 6.24 52.154 7.167 A 3.978 3.978 0 0 1 52.845 7.83 A 5.521 5.521 0 0 1 53.926 10.043 Q 54.122 10.836 54.147 11.763 A 10.129 10.129 0 0 1 54.15 12.03 L 54.15 22.2 L 51.45 22.2 L 51.45 12.33 A 5.779 5.779 0 0 0 51.347 11.208 Q 51.216 10.543 50.916 10.019 A 3.29 3.29 0 0 0 50.655 9.63 A 2.574 2.574 0 0 0 48.772 8.624 A 3.618 3.618 0 0 0 48.45 8.61 A 3.937 3.937 0 0 0 46.395 9.199 A 5.206 5.206 0 0 0 45.84 9.585 Q 44.61 10.56 43.74 11.88 L 43.74 22.2 Z M 37.35 15.51 L 26.43 15.51 A 7.226 7.226 0 0 0 26.772 17.018 Q 27.173 18.161 27.96 18.93 A 4.243 4.243 0 0 0 30.247 20.073 A 6.006 6.006 0 0 0 31.29 20.16 A 11.019 11.019 0 0 0 32.572 20.089 A 8.273 8.273 0 0 0 33.72 19.875 Q 34.8 19.59 35.79 19.14 L 36.42 21.45 A 12.231 12.231 0 0 1 35.12 21.938 A 15.559 15.559 0 0 1 33.99 22.245 A 11.674 11.674 0 0 1 32.462 22.491 A 15.608 15.608 0 0 1 30.96 22.56 A 8.495 8.495 0 0 1 28.636 22.258 A 6.332 6.332 0 0 1 25.635 20.415 A 7.056 7.056 0 0 1 24.073 17.553 Q 23.67 16.154 23.67 14.4 A 10.608 10.608 0 0 1 23.92 12.053 A 8.652 8.652 0 0 1 24.555 10.215 A 7.393 7.393 0 0 1 26.06 8.09 A 6.866 6.866 0 0 1 27.03 7.305 Q 28.62 6.24 30.72 6.24 A 8.566 8.566 0 0 1 32.361 6.389 Q 33.364 6.585 34.165 7.038 A 5.164 5.164 0 0 1 34.455 7.215 Q 35.94 8.19 36.69 9.84 A 8.456 8.456 0 0 1 37.418 12.799 A 10.03 10.03 0 0 1 37.44 13.47 A 22.561 22.561 0 0 1 37.353 15.479 A 20.779 20.779 0 0 1 37.35 15.51 Z M 134.1 15.51 L 123.18 15.51 A 7.226 7.226 0 0 0 123.522 17.018 Q 123.923 18.161 124.71 18.93 A 4.243 4.243 0 0 0 126.997 20.073 A 6.006 6.006 0 0 0 128.04 20.16 A 11.019 11.019 0 0 0 129.322 20.089 A 8.273 8.273 0 0 0 130.47 19.875 Q 131.55 19.59 132.54 19.14 L 133.17 21.45 A 12.231 12.231 0 0 1 131.87 21.938 A 15.559 15.559 0 0 1 130.74 22.245 A 11.674 11.674 0 0 1 129.212 22.491 A 15.608 15.608 0 0 1 127.71 22.56 A 8.495 8.495 0 0 1 125.386 22.258 A 6.332 6.332 0 0 1 122.385 20.415 A 7.056 7.056 0 0 1 120.823 17.553 Q 120.42 16.154 120.42 14.4 A 10.608 10.608 0 0 1 120.67 12.053 A 8.652 8.652 0 0 1 121.305 10.215 A 7.393 7.393 0 0 1 122.81 8.09 A 6.866 6.866 0 0 1 123.78 7.305 Q 125.37 6.24 127.47 6.24 A 8.566 8.566 0 0 1 129.111 6.389 Q 130.114 6.585 130.915 7.038 A 5.164 5.164 0 0 1 131.205 7.215 Q 132.69 8.19 133.44 9.84 A 8.456 8.456 0 0 1 134.168 12.799 A 10.03 10.03 0 0 1 134.19 13.47 A 22.561 22.561 0 0 1 134.103 15.479 A 20.779 20.779 0 0 1 134.1 15.51 Z M 59.4 16.83 L 59.4 9.51 L 56.7 9.51 L 56.7 7.17 L 59.46 7.17 L 60.03 2.25 L 62.1 2.25 L 62.1 7.17 L 66.42 7.17 L 66.42 9.51 L 62.1 9.51 L 62.1 17.04 A 6.468 6.468 0 0 0 62.15 17.879 Q 62.292 18.961 62.835 19.47 Q 63.57 20.16 64.59 20.16 Q 65.34 20.16 66.015 19.92 A 7.72 7.72 0 0 0 66.968 19.509 A 6.83 6.83 0 0 0 67.26 19.35 L 68.01 21.51 A 5.564 5.564 0 0 1 67.525 21.767 Q 67.043 21.994 66.39 22.215 Q 65.37 22.56 64.26 22.56 A 5.498 5.498 0 0 1 62.705 22.351 A 4.18 4.18 0 0 1 60.705 21.075 A 4.835 4.835 0 0 1 59.737 19.304 Q 59.508 18.575 59.435 17.694 A 10.433 10.433 0 0 1 59.4 16.83 Z M 148.47 7.86 L 148.47 6.6 L 150.93 6.6 L 150.93 18.42 A 3.645 3.645 0 0 0 150.96 18.911 Q 151.037 19.475 151.309 19.761 A 0.89 0.89 0 0 0 151.485 19.905 Q 152.04 20.25 152.7 20.25 L 152.13 22.35 Q 149.321 22.35 148.681 20.124 A 4.076 4.076 0 0 1 148.65 20.01 A 6.392 6.392 0 0 1 147.717 21.038 A 8.549 8.549 0 0 1 146.775 21.765 A 4.478 4.478 0 0 1 145.289 22.396 Q 144.684 22.538 143.978 22.557 A 8.162 8.162 0 0 1 143.76 22.56 Q 141.81 22.56 140.22 21.57 A 6.884 6.884 0 0 1 137.996 19.312 A 8.377 8.377 0 0 1 137.685 18.765 A 8.168 8.168 0 0 1 136.896 16.382 A 10.993 10.993 0 0 1 136.74 14.49 A 9.943 9.943 0 0 1 137.039 12.009 A 8.39 8.39 0 0 1 137.685 10.29 Q 138.63 8.43 140.295 7.335 A 6.689 6.689 0 0 1 143.653 6.253 A 8.216 8.216 0 0 1 144.12 6.24 A 6.775 6.775 0 0 1 145.558 6.387 A 5.611 5.611 0 0 1 146.565 6.705 A 7.801 7.801 0 0 1 147.851 7.393 A 6.631 6.631 0 0 1 148.47 7.86 Z M 156.15 17.31 L 156.15 0 L 158.85 0 L 158.85 17.04 Q 158.85 18.012 159.093 18.682 A 2.392 2.392 0 0 0 159.525 19.44 A 2.209 2.209 0 0 0 160.9 20.183 A 3.217 3.217 0 0 0 161.4 20.22 Q 161.97 20.22 162.525 20.085 A 6.658 6.658 0 0 0 162.964 19.963 Q 163.245 19.874 163.47 19.77 L 164.13 21.96 A 5.445 5.445 0 0 1 163.649 22.145 Q 163.267 22.273 162.795 22.38 A 7.145 7.145 0 0 1 161.848 22.526 A 9.154 9.154 0 0 1 161.04 22.56 A 6.259 6.259 0 0 1 159.573 22.394 A 5.263 5.263 0 0 1 158.55 22.035 A 3.805 3.805 0 0 1 156.953 20.605 A 4.757 4.757 0 0 1 156.795 20.34 Q 156.15 19.17 156.15 17.31 Z M 90.75 22.2 L 88.05 22.2 L 88.05 6.6 L 90.66 6.6 L 90.66 9.99 Q 91.05 9 91.71 8.145 Q 92.37 7.29 93.36 6.765 A 4.445 4.445 0 0 1 94.764 6.308 A 5.838 5.838 0 0 1 95.67 6.24 Q 96.12 6.24 96.57 6.285 A 5.692 5.692 0 0 1 96.886 6.325 Q 97.133 6.364 97.32 6.42 L 96.51 9.21 Q 95.966 8.981 95.23 8.97 A 4.979 4.979 0 0 0 95.16 8.97 A 3.887 3.887 0 0 0 93.171 9.524 A 4.682 4.682 0 0 0 93.045 9.6 Q 92.047 10.226 91.404 11.533 A 6.878 6.878 0 0 0 91.395 11.55 Q 90.866 12.632 90.771 14.198 A 11.727 11.727 0 0 0 90.75 14.91 L 90.75 22.2 Z M 74.088 22.158 A 8.164 8.164 0 0 0 76.68 22.56 A 9.218 9.218 0 0 0 77.362 22.535 A 7.577 7.577 0 0 0 80.655 21.54 Q 82.41 20.52 83.43 18.675 A 7.877 7.877 0 0 0 84.226 16.533 A 10.255 10.255 0 0 0 84.45 14.34 A 10.363 10.363 0 0 0 84.304 12.567 A 7.738 7.738 0 0 0 83.415 10.035 Q 82.38 8.22 80.625 7.23 A 7.455 7.455 0 0 0 79.233 6.622 A 8.321 8.321 0 0 0 76.68 6.24 A 9.398 9.398 0 0 0 76.206 6.252 A 7.851 7.851 0 0 0 72.72 7.23 Q 70.95 8.22 69.93 10.05 Q 68.91 11.88 68.91 14.4 Q 68.91 16.8 69.915 18.645 Q 70.92 20.49 72.69 21.525 A 7.368 7.368 0 0 0 74.088 22.158 Z M 76.68 20.16 A 5.622 5.622 0 0 0 78.248 19.953 A 4.2 4.2 0 0 0 80.37 18.555 A 5.641 5.641 0 0 0 81.516 16.128 A 8.131 8.131 0 0 0 81.69 14.4 A 6.413 6.413 0 0 0 81.323 12.214 A 6.004 6.004 0 0 0 81.03 11.535 A 5.759 5.759 0 0 0 79.778 9.864 A 5.451 5.451 0 0 0 79.245 9.435 Q 78.12 8.64 76.68 8.64 A 5.775 5.775 0 0 0 75.112 8.841 A 4.211 4.211 0 0 0 72.99 10.2 A 5.363 5.363 0 0 0 71.888 12.412 Q 71.69 13.209 71.672 14.145 A 9.86 9.86 0 0 0 71.67 14.34 Q 71.67 15.9 72.33 17.235 A 5.831 5.831 0 0 0 73.389 18.747 A 5.288 5.288 0 0 0 74.115 19.365 Q 75.24 20.16 76.68 20.16 Z M 148.23 18.21 L 148.23 9.84 Q 147.42 9.27 146.445 8.925 Q 145.47 8.58 144.39 8.58 A 4.777 4.777 0 0 0 142.899 8.806 A 4.207 4.207 0 0 0 141.855 9.315 Q 140.76 10.05 140.13 11.355 Q 139.5 12.66 139.5 14.4 Q 139.5 16.08 140.13 17.385 A 5.281 5.281 0 0 0 141.062 18.749 A 4.709 4.709 0 0 0 141.87 19.425 Q 142.98 20.16 144.36 20.16 Q 145.5 20.16 146.52 19.605 Q 147.54 19.05 148.23 18.21 Z M 26.4 13.32 L 34.95 13.32 A 7.307 7.307 0 0 0 34.829 11.944 Q 34.68 11.169 34.349 10.562 A 3.727 3.727 0 0 0 33.81 9.81 A 3.747 3.747 0 0 0 31.722 8.677 A 5.519 5.519 0 0 0 30.66 8.58 Q 28.92 8.58 27.78 9.795 Q 26.64 11.01 26.4 13.32 Z M 123.15 13.32 L 131.7 13.32 A 7.307 7.307 0 0 0 131.579 11.944 Q 131.43 11.169 131.099 10.562 A 3.727 3.727 0 0 0 130.56 9.81 A 3.747 3.747 0 0 0 128.472 8.677 A 5.519 5.519 0 0 0 127.41 8.58 Q 125.67 8.58 124.53 9.795 Q 123.39 11.01 123.15 13.32 Z"
                      vector-effect="non-scaling-stroke"
                    />
                  </g>
                </svg>