<svg width="215.34" height="19.68" viewBox="0 0 215.34 19.68" xmlns="http://www.w3.org/2000/svg"><g id="svgGroup" stroke-linecap="round" fill-rule="evenodd" font-size="9pt" stroke="#ffffff" stroke-width="0.25mm" fill="#ffffff" style="stroke:#ffffff;stroke-width:0.25mm;fill:#ffffff"><path d="M 0 13.86 L 0.96 12.26 Q 1.68 12.86 2.58 13.24 Q 3.48 13.62 4.68 13.62 A 5.596 5.596 0 0 0 5.589 13.551 Q 6.405 13.416 6.96 13.02 A 2.056 2.056 0 0 0 7.519 12.439 Q 7.782 12.018 7.799 11.473 A 2.423 2.423 0 0 0 7.8 11.4 A 2.388 2.388 0 0 0 7.733 10.821 A 1.963 1.963 0 0 0 7.56 10.37 Q 7.321 9.922 6.637 9.494 A 5.256 5.256 0 0 0 6.63 9.49 Q 5.94 9.06 4.6 8.56 Q 3.581 8.164 2.852 7.762 A 7.899 7.899 0 0 1 2.3 7.43 A 4.386 4.386 0 0 1 1.682 6.94 Q 1.29 6.563 1.07 6.13 A 3.333 3.333 0 0 1 0.766 5.196 A 4.586 4.586 0 0 1 0.7 4.4 Q 0.7 3.4 1.25 2.59 Q 1.8 1.78 2.87 1.29 A 5.112 5.112 0 0 1 4.05 0.923 Q 4.577 0.823 5.178 0.804 A 9.045 9.045 0 0 1 5.46 0.8 Q 6.7 0.8 7.69 1.05 Q 8.68 1.3 9.62 1.76 L 8.92 3.38 Q 8.24 2.98 7.33 2.71 Q 6.42 2.44 5.42 2.44 Q 4.1 2.44 3.34 2.96 A 1.98 1.98 0 0 0 2.907 3.353 A 1.472 1.472 0 0 0 2.58 4.3 A 2.093 2.093 0 0 0 2.638 4.804 A 1.712 1.712 0 0 0 2.8 5.22 A 1.382 1.382 0 0 0 3.014 5.505 Q 3.254 5.757 3.67 6 Q 4.32 6.38 5.62 6.86 A 16.246 16.246 0 0 1 6.616 7.266 Q 7.102 7.485 7.503 7.711 A 7.101 7.101 0 0 1 8.09 8.08 Q 8.836 8.604 9.225 9.203 A 2.846 2.846 0 0 1 9.38 9.47 A 3.516 3.516 0 0 1 9.728 10.643 A 4.431 4.431 0 0 1 9.76 11.18 A 4.342 4.342 0 0 1 9.627 12.28 A 3.421 3.421 0 0 1 9.11 13.4 A 3.924 3.924 0 0 1 7.724 14.605 A 4.871 4.871 0 0 1 7.31 14.8 A 6.104 6.104 0 0 1 5.828 15.201 A 8.005 8.005 0 0 1 4.68 15.28 Q 3.22 15.28 2.02 14.89 A 7.641 7.641 0 0 1 0.947 14.454 A 5.687 5.687 0 0 1 0 13.86 Z M 14.16 15.04 L 12.36 15.04 L 12.36 0.24 L 14.16 0.24 L 14.16 6.3 Q 14.72 5.48 15.58 4.94 A 3.514 3.514 0 0 1 17.005 4.438 A 4.519 4.519 0 0 1 17.6 4.4 A 4.645 4.645 0 0 1 18.613 4.504 Q 19.282 4.653 19.769 5.018 A 2.652 2.652 0 0 1 20.23 5.46 A 3.681 3.681 0 0 1 20.951 6.936 Q 21.1 7.54 21.1 8.26 L 21.1 15.04 L 19.3 15.04 L 19.3 8.46 Q 19.3 7.542 18.951 6.919 A 2.197 2.197 0 0 0 18.78 6.66 A 1.684 1.684 0 0 0 17.548 5.991 A 2.396 2.396 0 0 0 17.32 5.98 A 2.646 2.646 0 0 0 15.977 6.353 A 3.517 3.517 0 0 0 15.57 6.63 Q 14.74 7.28 14.16 8.16 L 14.16 15.04 Z M 150.38 19.28 L 150.78 17.78 Q 151.02 17.92 151.38 18.02 A 2.703 2.703 0 0 0 151.836 18.104 A 3.472 3.472 0 0 0 152.18 18.12 Q 153.02 18.12 153.68 17.58 A 2.401 2.401 0 0 0 154.067 17.168 Q 154.416 16.706 154.748 15.935 A 11.716 11.716 0 0 0 154.94 15.46 L 155.4 14.26 L 154.44 14.26 L 150.38 5.12 L 151.98 4.4 L 155.86 13.06 L 158.88 4.48 L 160.54 5.12 L 156.72 15.56 A 14.346 14.346 0 0 1 156.309 16.577 Q 155.906 17.469 155.46 18.06 Q 154.83 18.893 154.081 19.264 A 2.948 2.948 0 0 1 153.96 19.32 Q 153.14 19.68 152.14 19.68 A 6.086 6.086 0 0 1 152.131 19.68 Q 151.599 19.679 151.186 19.584 A 2.917 2.917 0 0 1 151.09 19.56 Q 150.778 19.477 150.558 19.375 A 1.723 1.723 0 0 1 150.38 19.28 Z M 94.12 11.4 L 94.12 4.64 L 95.92 4.64 L 95.92 11.16 A 4.596 4.596 0 0 0 95.971 11.867 Q 96.028 12.236 96.151 12.534 A 2.027 2.027 0 0 0 96.44 13.03 Q 96.96 13.68 97.96 13.68 Q 98.78 13.68 99.55 13.35 Q 100.32 13.02 100.92 12.46 L 100.92 4.64 L 102.72 4.64 L 102.72 12.34 A 3.12 3.12 0 0 0 102.74 12.711 Q 102.788 13.107 102.947 13.325 A 0.654 0.654 0 0 0 103.09 13.47 Q 103.46 13.74 103.9 13.74 L 103.52 15.14 Q 101.66 15.14 101.22 13.66 Q 100.52 14.38 99.6 14.83 Q 98.68 15.28 97.62 15.28 Q 96.72 15.28 95.92 14.9 A 2.888 2.888 0 0 1 94.818 13.972 A 3.653 3.653 0 0 1 94.62 13.67 A 3.248 3.248 0 0 1 94.287 12.851 Q 94.183 12.457 94.144 11.989 A 7.074 7.074 0 0 1 94.12 11.4 Z M 207.48 14.2 L 208.24 12.7 A 3.711 3.711 0 0 0 208.869 13.125 Q 209.177 13.293 209.544 13.428 A 6.084 6.084 0 0 0 209.55 13.43 Q 210.34 13.72 211.24 13.72 Q 212.36 13.72 212.93 13.35 A 1.49 1.49 0 0 0 213.237 13.091 A 1.01 1.01 0 0 0 213.5 12.4 A 1.425 1.425 0 0 0 213.437 11.971 A 1.242 1.242 0 0 0 213.29 11.66 Q 213.08 11.34 212.52 11.03 A 5.693 5.693 0 0 0 212.121 10.831 Q 211.629 10.608 210.9 10.36 A 9.323 9.323 0 0 1 210.02 10.011 Q 209.2 9.634 208.71 9.17 Q 207.98 8.48 207.98 7.26 A 2.424 2.424 0 0 1 208.77 5.457 A 3.493 3.493 0 0 1 209.03 5.23 Q 209.911 4.534 211.362 4.422 A 7.505 7.505 0 0 1 211.94 4.4 Q 212.94 4.4 213.72 4.61 A 7.754 7.754 0 0 1 214.547 4.881 A 6.222 6.222 0 0 1 215.12 5.14 L 214.62 6.62 A 4.906 4.906 0 0 0 213.886 6.267 A 6.038 6.038 0 0 0 213.39 6.1 A 5.005 5.005 0 0 0 212.493 5.931 A 6.367 6.367 0 0 0 211.86 5.9 Q 211.193 5.9 210.731 6.073 A 1.702 1.702 0 0 0 210.28 6.32 A 1.864 1.864 0 0 0 210.008 6.575 Q 209.868 6.738 209.801 6.913 A 0.906 0.906 0 0 0 209.74 7.24 A 0.984 0.984 0 0 0 210.039 7.95 A 1.416 1.416 0 0 0 210.16 8.06 Q 210.573 8.394 211.76 8.787 A 16.851 16.851 0 0 0 211.8 8.8 Q 213.78 9.46 214.56 10.26 A 2.719 2.719 0 0 1 215.337 12.109 A 3.579 3.579 0 0 1 215.34 12.26 Q 215.34 13.61 214.29 14.411 A 3.323 3.323 0 0 1 214.21 14.47 A 4.01 4.01 0 0 1 212.935 15.065 Q 212.402 15.213 211.772 15.259 A 8.084 8.084 0 0 1 211.18 15.28 Q 210 15.28 209.05 14.98 A 6.177 6.177 0 0 1 208.282 14.683 Q 207.886 14.497 207.57 14.267 A 3.645 3.645 0 0 1 207.48 14.2 Z M 31.2 15.04 L 29.4 15.04 L 29.4 6.58 L 27.8 6.58 L 27.8 5.02 L 29.4 5.02 L 29.4 3.8 Q 29.4 2.04 30.38 1.02 A 3.273 3.273 0 0 1 32.461 0.025 A 4.492 4.492 0 0 1 32.94 0 Q 33.704 0 34.294 0.165 A 3.576 3.576 0 0 1 34.38 0.19 Q 35 0.38 35.56 0.66 L 35.02 2.18 A 7.792 7.792 0 0 0 34.298 1.849 A 8.778 8.778 0 0 0 34.12 1.78 A 2.834 2.834 0 0 0 33.396 1.616 A 3.471 3.471 0 0 0 33.06 1.6 A 2.16 2.16 0 0 0 32.454 1.681 A 1.658 1.658 0 0 0 31.71 2.13 A 1.692 1.692 0 0 0 31.321 2.804 Q 31.238 3.065 31.212 3.381 A 3.658 3.658 0 0 0 31.2 3.68 L 31.2 5.02 L 34.28 5.02 L 34.28 6.58 L 31.2 6.58 L 31.2 15.04 Z M 173.14 15.04 L 171.24 15.04 L 171.24 2.72 L 166.94 2.72 L 166.94 1.04 L 177.44 1.04 L 177.44 2.72 L 173.14 2.72 L 173.14 15.04 Z M 88.84 5.68 L 88.84 0.24 L 90.64 0.24 L 90.64 12.52 A 2.43 2.43 0 0 0 90.66 12.847 Q 90.727 13.334 91.01 13.51 Q 91.38 13.74 91.82 13.74 L 91.44 15.14 Q 89.54 15.14 89.12 13.62 A 3.897 3.897 0 0 1 88.554 14.25 Q 88.261 14.516 87.89 14.76 A 3.028 3.028 0 0 1 86.887 15.177 Q 86.434 15.28 85.9 15.28 Q 84.62 15.28 83.56 14.62 A 4.538 4.538 0 0 1 82.052 13.062 A 5.524 5.524 0 0 1 81.88 12.75 Q 81.26 11.54 81.26 9.9 A 6.788 6.788 0 0 1 81.438 8.317 A 5.593 5.593 0 0 1 81.89 7.08 A 5.458 5.458 0 0 1 82.814 5.762 A 4.837 4.837 0 0 1 83.57 5.12 Q 84.62 4.4 85.88 4.4 A 4.328 4.328 0 0 1 86.734 4.48 A 3.188 3.188 0 0 1 87.67 4.82 A 6.869 6.869 0 0 1 88.186 5.138 Q 88.578 5.405 88.84 5.68 Z M 133.14 15.04 L 131.26 15.04 L 127.08 5.12 L 128.72 4.44 L 132.26 13 L 135.8 4.44 L 137.34 5.12 L 133.14 15.04 Z M 37.46 11.46 L 37.46 6.58 L 35.66 6.58 L 35.66 5.02 L 37.5 5.02 L 37.88 1.74 L 39.26 1.74 L 39.26 5.02 L 42.14 5.02 L 42.14 6.58 L 39.26 6.58 L 39.26 11.6 Q 39.26 12.628 39.645 13.106 A 1.111 1.111 0 0 0 39.75 13.22 Q 40.24 13.68 40.92 13.68 Q 41.42 13.68 41.87 13.52 Q 42.32 13.36 42.7 13.14 L 43.2 14.58 A 3.709 3.709 0 0 1 42.876 14.751 Q 42.716 14.827 42.527 14.902 A 8.673 8.673 0 0 1 42.12 15.05 Q 41.44 15.28 40.7 15.28 A 3.665 3.665 0 0 1 39.664 15.141 A 2.787 2.787 0 0 1 38.33 14.29 Q 37.46 13.3 37.46 11.46 Z M 115.94 11.46 L 115.94 6.58 L 114.14 6.58 L 114.14 5.02 L 115.98 5.02 L 116.36 1.74 L 117.74 1.74 L 117.74 5.02 L 120.62 5.02 L 120.62 6.58 L 117.74 6.58 L 117.74 11.6 Q 117.74 12.628 118.125 13.106 A 1.111 1.111 0 0 0 118.23 13.22 Q 118.72 13.68 119.4 13.68 Q 119.9 13.68 120.35 13.52 Q 120.8 13.36 121.18 13.14 L 121.68 14.58 A 3.709 3.709 0 0 1 121.356 14.751 Q 121.196 14.827 121.007 14.902 A 8.673 8.673 0 0 1 120.6 15.05 Q 119.92 15.28 119.18 15.28 A 3.665 3.665 0 0 1 118.144 15.141 A 2.787 2.787 0 0 1 116.81 14.29 Q 115.94 13.3 115.94 11.46 Z M 144.54 11.46 L 144.54 6.58 L 142.74 6.58 L 142.74 5.02 L 144.58 5.02 L 144.96 1.74 L 146.34 1.74 L 146.34 5.02 L 149.22 5.02 L 149.22 6.58 L 146.34 6.58 L 146.34 11.6 Q 146.34 12.628 146.725 13.106 A 1.111 1.111 0 0 0 146.83 13.22 Q 147.32 13.68 148 13.68 Q 148.5 13.68 148.95 13.52 Q 149.4 13.36 149.78 13.14 L 150.28 14.58 A 3.709 3.709 0 0 1 149.956 14.751 Q 149.796 14.827 149.607 14.902 A 8.673 8.673 0 0 1 149.2 15.05 Q 148.52 15.28 147.78 15.28 A 3.665 3.665 0 0 1 146.744 15.141 A 2.787 2.787 0 0 1 145.41 14.29 Q 144.54 13.3 144.54 11.46 Z M 53.1 15.04 L 51.2 15.04 L 51.2 1.08 Q 52.02 0.98 53.01 0.93 A 40.161 40.161 0 0 1 54.796 0.881 A 44.393 44.393 0 0 1 55.06 0.88 Q 56.574 0.88 57.694 1.296 A 5.202 5.202 0 0 1 58.02 1.43 A 4.921 4.921 0 0 1 59.036 2.036 A 3.875 3.875 0 0 1 59.88 2.94 A 3.829 3.829 0 0 1 60.516 4.943 A 4.679 4.679 0 0 1 60.52 5.14 Q 60.52 6.64 59.78 7.68 A 4.462 4.462 0 0 1 58.27 9.006 A 5.613 5.613 0 0 1 57.72 9.27 Q 56.4 9.82 54.66 9.82 A 20.805 20.805 0 0 1 53.753 9.801 A 16.586 16.586 0 0 1 53.1 9.76 L 53.1 15.04 Z M 113.28 5.02 L 112.74 6.54 A 6.084 6.084 0 0 0 112.159 6.285 A 4.684 4.684 0 0 0 111.67 6.13 A 4.109 4.109 0 0 0 111.061 6.025 A 5.271 5.271 0 0 0 110.54 6 A 3.178 3.178 0 0 0 109.089 6.329 A 3.226 3.226 0 0 0 108.19 7.01 A 3.347 3.347 0 0 0 107.397 8.481 Q 107.24 9.077 107.24 9.8 A 5.038 5.038 0 0 0 107.381 11.012 A 4.29 4.29 0 0 0 107.64 11.76 Q 108.04 12.64 108.75 13.16 Q 109.46 13.68 110.42 13.68 A 5.684 5.684 0 0 0 111.001 13.652 Q 111.287 13.623 111.534 13.562 A 3.016 3.016 0 0 0 111.72 13.51 Q 112.258 13.341 112.875 13.023 A 9.378 9.378 0 0 0 112.88 13.02 L 113.44 14.54 A 5.707 5.707 0 0 1 112.517 14.941 A 6.858 6.858 0 0 1 112.05 15.08 Q 111.28 15.28 110.3 15.28 A 5.361 5.361 0 0 1 108.892 15.102 A 4.415 4.415 0 0 1 107.71 14.59 Q 106.6 13.9 106 12.67 A 5.872 5.872 0 0 1 105.473 10.908 A 7.604 7.604 0 0 1 105.4 9.84 A 6.407 6.407 0 0 1 105.663 7.983 A 5.76 5.76 0 0 1 106.01 7.1 Q 106.62 5.86 107.76 5.13 A 4.613 4.613 0 0 1 109.694 4.446 A 5.922 5.922 0 0 1 110.44 4.4 Q 111.243 4.4 111.871 4.533 A 4.794 4.794 0 0 1 111.99 4.56 Q 112.66 4.72 113.28 5.02 Z M 201.36 11.78 L 201.36 0.24 L 203.16 0.24 L 203.16 11.6 Q 203.16 12.68 203.61 13.2 A 1.473 1.473 0 0 0 204.527 13.695 A 2.145 2.145 0 0 0 204.86 13.72 Q 205.24 13.72 205.61 13.63 A 4.438 4.438 0 0 0 205.903 13.549 Q 206.09 13.489 206.24 13.42 L 206.68 14.88 Q 206.4 15.004 206.018 15.105 A 6.996 6.996 0 0 1 205.79 15.16 A 4.763 4.763 0 0 1 205.159 15.257 A 6.103 6.103 0 0 1 204.62 15.28 Q 203.7 15.28 202.96 14.93 A 2.537 2.537 0 0 1 201.895 13.977 A 3.171 3.171 0 0 1 201.79 13.8 A 3.151 3.151 0 0 1 201.496 13.029 Q 201.407 12.667 201.376 12.242 A 6.421 6.421 0 0 1 201.36 11.78 Z M 64.42 15.04 L 62.62 15.04 L 62.62 4.64 L 64.36 4.64 L 64.36 6.9 Q 64.62 6.24 65.06 5.67 Q 65.5 5.1 66.16 4.75 A 2.963 2.963 0 0 1 67.096 4.445 A 3.892 3.892 0 0 1 67.7 4.4 Q 68 4.4 68.3 4.43 A 3.794 3.794 0 0 1 68.511 4.457 Q 68.611 4.472 68.696 4.493 A 1.763 1.763 0 0 1 68.8 4.52 L 68.26 6.38 Q 67.897 6.227 67.407 6.22 A 3.318 3.318 0 0 0 67.36 6.22 A 2.592 2.592 0 0 0 66.034 6.589 A 3.122 3.122 0 0 0 65.95 6.64 A 2.68 2.68 0 0 0 65.256 7.279 Q 65.035 7.564 64.856 7.928 A 4.585 4.585 0 0 0 64.85 7.94 A 3.864 3.864 0 0 0 64.556 8.802 Q 64.42 9.415 64.42 10.18 L 64.42 15.04 Z M 72.652 15.012 A 5.443 5.443 0 0 0 74.38 15.28 A 6.145 6.145 0 0 0 74.835 15.263 A 5.051 5.051 0 0 0 77.03 14.6 Q 78.2 13.92 78.88 12.69 A 5.251 5.251 0 0 0 79.411 11.262 A 6.837 6.837 0 0 0 79.56 9.8 A 6.908 6.908 0 0 0 79.463 8.618 A 5.159 5.159 0 0 0 78.87 6.93 Q 78.18 5.72 77.01 5.06 A 4.97 4.97 0 0 0 76.082 4.655 A 5.548 5.548 0 0 0 74.38 4.4 A 6.265 6.265 0 0 0 74.064 4.408 A 5.234 5.234 0 0 0 71.74 5.06 Q 70.56 5.72 69.88 6.94 A 5.205 5.205 0 0 0 69.33 8.458 A 7.001 7.001 0 0 0 69.2 9.84 A 6.964 6.964 0 0 0 69.253 10.711 A 5.49 5.49 0 0 0 69.87 12.67 Q 70.54 13.9 71.72 14.59 A 4.912 4.912 0 0 0 72.652 15.012 Z M 180.192 15.012 A 5.443 5.443 0 0 0 181.92 15.28 A 6.145 6.145 0 0 0 182.375 15.263 A 5.051 5.051 0 0 0 184.57 14.6 Q 185.74 13.92 186.42 12.69 A 5.251 5.251 0 0 0 186.951 11.262 A 6.837 6.837 0 0 0 187.1 9.8 A 6.908 6.908 0 0 0 187.003 8.618 A 5.159 5.159 0 0 0 186.41 6.93 Q 185.72 5.72 184.55 5.06 A 4.97 4.97 0 0 0 183.622 4.655 A 5.548 5.548 0 0 0 181.92 4.4 A 6.265 6.265 0 0 0 181.604 4.408 A 5.234 5.234 0 0 0 179.28 5.06 Q 178.1 5.72 177.42 6.94 A 5.205 5.205 0 0 0 176.87 8.458 A 7.001 7.001 0 0 0 176.74 9.84 A 6.964 6.964 0 0 0 176.793 10.711 A 5.49 5.49 0 0 0 177.41 12.67 Q 178.08 13.9 179.26 14.59 A 4.912 4.912 0 0 0 180.192 15.012 Z M 192.152 15.012 A 5.443 5.443 0 0 0 193.88 15.28 A 6.145 6.145 0 0 0 194.335 15.263 A 5.051 5.051 0 0 0 196.53 14.6 Q 197.7 13.92 198.38 12.69 A 5.251 5.251 0 0 0 198.911 11.262 A 6.837 6.837 0 0 0 199.06 9.8 A 6.908 6.908 0 0 0 198.963 8.618 A 5.159 5.159 0 0 0 198.37 6.93 Q 197.68 5.72 196.51 5.06 A 4.97 4.97 0 0 0 195.582 4.655 A 5.548 5.548 0 0 0 193.88 4.4 A 6.265 6.265 0 0 0 193.564 4.408 A 5.234 5.234 0 0 0 191.24 5.06 Q 190.06 5.72 189.38 6.94 A 5.205 5.205 0 0 0 188.83 8.458 A 7.001 7.001 0 0 0 188.7 9.84 A 6.964 6.964 0 0 0 188.753 10.711 A 5.49 5.49 0 0 0 189.37 12.67 Q 190.04 13.9 191.22 14.59 A 4.912 4.912 0 0 0 192.152 15.012 Z M 26 15.04 L 24.2 15.04 L 24.2 4.64 L 26 4.64 L 26 15.04 Z M 125.28 15.04 L 123.48 15.04 L 123.48 4.64 L 125.28 4.64 L 125.28 15.04 Z M 140.94 15.04 L 139.14 15.04 L 139.14 4.64 L 140.94 4.64 L 140.94 15.04 Z M 74.38 13.68 Q 75.96 13.68 76.84 12.61 A 3.76 3.76 0 0 0 77.604 10.992 A 5.421 5.421 0 0 0 77.72 9.84 Q 77.72 8.8 77.28 7.93 A 3.84 3.84 0 0 0 76.446 6.816 A 3.634 3.634 0 0 0 76.09 6.53 Q 75.34 6 74.38 6 A 3.85 3.85 0 0 0 73.335 6.134 A 2.807 2.807 0 0 0 71.92 7.04 A 3.576 3.576 0 0 0 71.185 8.515 Q 71.054 9.046 71.041 9.67 A 6.574 6.574 0 0 0 71.04 9.8 Q 71.04 10.84 71.48 11.73 A 3.887 3.887 0 0 0 72.186 12.738 A 3.525 3.525 0 0 0 72.67 13.15 Q 73.42 13.68 74.38 13.68 Z M 181.92 13.68 Q 183.5 13.68 184.38 12.61 A 3.76 3.76 0 0 0 185.144 10.992 A 5.421 5.421 0 0 0 185.26 9.84 Q 185.26 8.8 184.82 7.93 A 3.84 3.84 0 0 0 183.986 6.816 A 3.634 3.634 0 0 0 183.63 6.53 Q 182.88 6 181.92 6 A 3.85 3.85 0 0 0 180.875 6.134 A 2.807 2.807 0 0 0 179.46 7.04 A 3.576 3.576 0 0 0 178.725 8.515 Q 178.594 9.046 178.581 9.67 A 6.574 6.574 0 0 0 178.58 9.8 Q 178.58 10.84 179.02 11.73 A 3.887 3.887 0 0 0 179.726 12.738 A 3.525 3.525 0 0 0 180.21 13.15 Q 180.96 13.68 181.92 13.68 Z M 193.88 13.68 Q 195.46 13.68 196.34 12.61 A 3.76 3.76 0 0 0 197.104 10.992 A 5.421 5.421 0 0 0 197.22 9.84 Q 197.22 8.8 196.78 7.93 A 3.84 3.84 0 0 0 195.946 6.816 A 3.634 3.634 0 0 0 195.59 6.53 Q 194.84 6 193.88 6 A 3.85 3.85 0 0 0 192.835 6.134 A 2.807 2.807 0 0 0 191.42 7.04 A 3.576 3.576 0 0 0 190.685 8.515 Q 190.554 9.046 190.541 9.67 A 6.574 6.574 0 0 0 190.54 9.8 Q 190.54 10.84 190.98 11.73 A 3.887 3.887 0 0 0 191.686 12.738 A 3.525 3.525 0 0 0 192.17 13.15 Q 192.92 13.68 193.88 13.68 Z M 88.84 12.42 L 88.84 7.26 A 3.169 3.169 0 0 0 88.418 6.825 Q 88.141 6.588 87.78 6.37 Q 87.1 5.96 86.28 5.96 A 2.989 2.989 0 0 0 85.289 6.12 A 2.677 2.677 0 0 0 84.6 6.48 Q 83.88 7 83.49 7.87 A 4.438 4.438 0 0 0 83.142 9.143 A 5.623 5.623 0 0 0 83.1 9.84 A 4.951 4.951 0 0 0 83.219 10.944 A 4.065 4.065 0 0 0 83.52 11.81 A 3.641 3.641 0 0 0 84.128 12.713 A 3.224 3.224 0 0 0 84.67 13.18 Q 85.4 13.68 86.3 13.68 Q 87.04 13.68 87.71 13.33 Q 88.38 12.98 88.84 12.42 Z M 53.1 2.56 L 53.1 8.14 Q 53.42 8.18 53.88 8.21 Q 54.34 8.24 54.9 8.24 A 6.366 6.366 0 0 0 55.976 8.155 Q 56.552 8.056 57.013 7.842 A 3.044 3.044 0 0 0 57.66 7.44 A 2.579 2.579 0 0 0 58.631 5.552 A 3.464 3.464 0 0 0 58.64 5.3 A 2.89 2.89 0 0 0 58.488 4.341 A 2.427 2.427 0 0 0 57.7 3.24 A 3.092 3.092 0 0 0 56.684 2.707 Q 55.972 2.48 55.02 2.48 A 26.225 26.225 0 0 0 54.368 2.488 A 21.988 21.988 0 0 0 54 2.5 A 18.255 18.255 0 0 0 53.423 2.533 A 15.008 15.008 0 0 0 53.1 2.56 Z M 24.227 2.498 A 1.195 1.195 0 0 0 25.1 2.86 A 1.635 1.635 0 0 0 25.399 2.834 A 1.129 1.129 0 0 0 26.02 2.51 A 1.155 1.155 0 0 0 26.305 2.017 A 1.502 1.502 0 0 0 26.36 1.6 Q 26.36 1.08 25.99 0.71 A 1.481 1.481 0 0 0 25.978 0.699 A 1.212 1.212 0 0 0 25.1 0.34 A 1.653 1.653 0 0 0 24.769 0.372 A 1.132 1.132 0 0 0 24.18 0.68 A 1.118 1.118 0 0 0 23.886 1.206 A 1.597 1.597 0 0 0 23.84 1.6 A 1.198 1.198 0 0 0 23.938 2.084 A 1.329 1.329 0 0 0 24.21 2.48 A 1.493 1.493 0 0 0 24.227 2.498 Z M 123.507 2.498 A 1.195 1.195 0 0 0 124.38 2.86 A 1.635 1.635 0 0 0 124.679 2.834 A 1.129 1.129 0 0 0 125.3 2.51 A 1.155 1.155 0 0 0 125.585 2.017 A 1.502 1.502 0 0 0 125.64 1.6 Q 125.64 1.08 125.27 0.71 A 1.481 1.481 0 0 0 125.258 0.699 A 1.212 1.212 0 0 0 124.38 0.34 A 1.653 1.653 0 0 0 124.049 0.372 A 1.132 1.132 0 0 0 123.46 0.68 A 1.118 1.118 0 0 0 123.166 1.206 A 1.597 1.597 0 0 0 123.12 1.6 A 1.198 1.198 0 0 0 123.218 2.084 A 1.329 1.329 0 0 0 123.49 2.48 A 1.493 1.493 0 0 0 123.507 2.498 Z M 139.167 2.498 A 1.195 1.195 0 0 0 140.04 2.86 A 1.635 1.635 0 0 0 140.339 2.834 A 1.129 1.129 0 0 0 140.96 2.51 A 1.155 1.155 0 0 0 141.245 2.017 A 1.502 1.502 0 0 0 141.3 1.6 Q 141.3 1.08 140.93 0.71 A 1.481 1.481 0 0 0 140.918 0.699 A 1.212 1.212 0 0 0 140.04 0.34 A 1.653 1.653 0 0 0 139.709 0.372 A 1.132 1.132 0 0 0 139.12 0.68 A 1.118 1.118 0 0 0 138.826 1.206 A 1.597 1.597 0 0 0 138.78 1.6 A 1.198 1.198 0 0 0 138.878 2.084 A 1.329 1.329 0 0 0 139.15 2.48 A 1.493 1.493 0 0 0 139.167 2.498 Z" vector-effect="non-scaling-stroke"/></g></svg>